<?xml version="1.0" standalone="no"?>
<!DOCTYPE svg PUBLIC "-//W3C//DTD SVG 20010904//EN"
 "http://www.w3.org/TR/2001/REC-SVG-20010904/DTD/svg10.dtd">
<svg version="1.0" xmlns="http://www.w3.org/2000/svg"
 width="388.000000pt" height="388.000000pt" viewBox="0 0 388.000000 388.000000"
 preserveAspectRatio="xMidYMid meet">
<metadata>
Created by potrace 1.11, written by Peter Selinger 2001-2013
</metadata>
<g transform="translate(0.000000,388.000000) scale(0.100000,-0.100000)"
fill="#000000" stroke="none">
<path d="M0 1940 l0 -1940 1940 0 1940 0 0 1940 0 1940 -1940 0 -1940 0 0
-1940z m2150 1449 c319 -43 621 -198 851 -435 224 -232 361 -494 416 -794 23
-128 23 -400 0 -526 -106 -579 -545 -1053 -1109 -1199 -184 -48 -429 -60 -610
-31 -96 16 -111 19 -145 33 -22 8 -30 10 -43 12 -6 0 -10 32 -10 70 l0 70 28
-5 c15 -3 52 -11 82 -19 164 -41 403 -43 591 -5 308 63 592 239 790 490 382
484 394 1149 32 1652 -111 154 -320 331 -497 420 -88 45 -280 105 -390 123
-166 26 -412 15 -550 -25 -31 -9 -40 -9 -47 2 -7 10 -9 10 -9 -3 0 -9 -7 -16
-15 -16 -21 0 -22 132 -1 140 9 4 17 -1 19 -11 3 -12 5 -11 6 6 0 12 4 22 9
22 4 0 41 7 82 16 150 32 342 37 520 13z m-663 -161 c-2 -24 -4 -7 -4 37 0 44
2 63 4 43 2 -21 2 -57 0 -80z m915 -1158 c53 -294 111 -609 127 -700 17 -91
31 -171 31 -177 0 -10 -35 -13 -139 -13 -157 0 -145 -7 -156 85 -12 90 -5 85
-115 85 l-98 0 -6 -32 c-3 -18 -8 -57 -12 -85 l-7 -53 -141 0 -142 0 17 93
c10 50 29 157 43 237 25 143 69 385 106 590 10 58 33 184 50 280 17 96 33 187
36 203 l6 28 151 -3 152 -3 97 -535z m528 -175 l0 -715 -140 0 -140 0 0 715 0
715 140 0 140 0 0 -715z m-1289 581 c14 -15 12 -739 -3 -730 -7 5 -9 1 -6 -13
3 -12 2 -27 -3 -34 -5 -8 -8 170 -7 411 0 234 3 414 5 400 3 -14 9 -29 14 -34z
m4 -1232 c7 -14 10 -35 7 -47 -5 -20 -6 -20 -12 -1 -7 19 -7 19 -12 -1 -3 -11
-6 9 -6 45 0 36 2 57 5 47 3 -10 11 -29 18 -43z m-158 -756 c-2 -24 -4 -7 -4
37 0 44 2 63 4 43 2 -21 2 -57 0 -80z"/>
<path d="M1531 3294 c0 -11 3 -14 6 -6 3 7 2 16 -1 19 -3 4 -6 -2 -5 -13z"/>
<path d="M1531 3254 c0 -11 3 -14 6 -6 3 7 2 16 -1 19 -3 4 -6 -2 -5 -13z"/>
<path d="M1531 554 c0 -11 3 -14 6 -6 3 7 2 16 -1 19 -3 4 -6 -2 -5 -13z"/>
<path d="M1531 514 c0 -11 3 -14 6 -6 3 7 2 16 -1 19 -3 4 -6 -2 -5 -13z"/>
<path d="M1531 474 c0 -11 3 -14 6 -6 3 7 2 16 -1 19 -3 4 -6 -2 -5 -13z"/>
<path d="M2146 2043 c-10 -51 -56 -403 -56 -433 l0 -30 65 0 c36 0 65 1 65 3
-1 23 -61 481 -64 484 -2 3 -7 -8 -10 -24z"/>
<path d="M1631 2454 c0 -11 3 -14 6 -6 3 7 2 16 -1 19 -3 4 -6 -2 -5 -13z"/>
<path d="M1631 2414 c0 -11 3 -14 6 -6 3 7 2 16 -1 19 -3 4 -6 -2 -5 -13z"/>
<path d="M1631 2374 c0 -11 3 -14 6 -6 3 7 2 16 -1 19 -3 4 -6 -2 -5 -13z"/>
<path d="M1631 2334 c0 -11 3 -14 6 -6 3 7 2 16 -1 19 -3 4 -6 -2 -5 -13z"/>
<path d="M1631 2294 c0 -11 3 -14 6 -6 3 7 2 16 -1 19 -3 4 -6 -2 -5 -13z"/>
<path d="M1631 2254 c0 -11 3 -14 6 -6 3 7 2 16 -1 19 -3 4 -6 -2 -5 -13z"/>
<path d="M1631 2214 c0 -11 3 -14 6 -6 3 7 2 16 -1 19 -3 4 -6 -2 -5 -13z"/>
<path d="M1631 2174 c0 -11 3 -14 6 -6 3 7 2 16 -1 19 -3 4 -6 -2 -5 -13z"/>
<path d="M1631 2134 c0 -11 3 -14 6 -6 3 7 2 16 -1 19 -3 4 -6 -2 -5 -13z"/>
<path d="M1631 2094 c0 -11 3 -14 6 -6 3 7 2 16 -1 19 -3 4 -6 -2 -5 -13z"/>
<path d="M1631 2054 c0 -11 3 -14 6 -6 3 7 2 16 -1 19 -3 4 -6 -2 -5 -13z"/>
<path d="M1631 2014 c0 -11 3 -14 6 -6 3 7 2 16 -1 19 -3 4 -6 -2 -5 -13z"/>
<path d="M1631 1974 c0 -11 3 -14 6 -6 3 7 2 16 -1 19 -3 4 -6 -2 -5 -13z"/>
<path d="M1631 1934 c0 -11 3 -14 6 -6 3 7 2 16 -1 19 -3 4 -6 -2 -5 -13z"/>
<path d="M1631 1894 c0 -11 3 -14 6 -6 3 7 2 16 -1 19 -3 4 -6 -2 -5 -13z"/>
<path d="M1631 1854 c0 -11 3 -14 6 -6 3 7 2 16 -1 19 -3 4 -6 -2 -5 -13z"/>
<path d="M1631 1814 c0 -11 3 -14 6 -6 3 7 2 16 -1 19 -3 4 -6 -2 -5 -13z"/>
<path d="M1631 1774 c0 -11 3 -14 6 -6 3 7 2 16 -1 19 -3 4 -6 -2 -5 -13z"/>
<path d="M1631 1234 c0 -11 3 -14 6 -6 3 7 2 16 -1 19 -3 4 -6 -2 -5 -13z"/>
</g>
</svg>
